<?xml version="1.0" standalone="no"?>
<!DOCTYPE svg PUBLIC "-//W3C//DTD SVG 20010904//EN"
 "http://www.w3.org/TR/2001/REC-SVG-20010904/DTD/svg10.dtd">
<svg version="1.0" xmlns="http://www.w3.org/2000/svg"
 width="256.000000pt" height="256.000000pt" viewBox="0 0 256.000000 256.000000"
 preserveAspectRatio="xMidYMid meet">
<metadata>
Created by potrace 1.11, written by Peter Selinger 2001-2013
</metadata>
<g transform="translate(0.000000,256.000000) scale(0.100000,-0.100000)"
fill="#000000" stroke="none">
<path d="M1420 2230 c0 -3 -12 -6 -27 -7 -16 0 -39 -3 -53 -7 -27 -6 -87 -15
-135 -20 -16 -2 -30 -5 -30 -6 0 -1 -11 -4 -25 -6 -14 -2 -43 -6 -65 -9 -22
-4 -50 -7 -62 -8 -13 0 -23 -3 -23 -6 0 -4 -10 -7 -22 -7 -68 -4 -108 -10
-108 -15 0 -4 -10 -7 -22 -7 -25 0 -93 -9 -93 -12 0 -1 -11 -3 -25 -4 -14 -1
-47 -6 -75 -11 -27 -5 -54 -9 -60 -10 -10 0 -10 -72 -3 -362 2 -68 6 -123 9
-123 3 0 6 -7 6 -15 0 -8 -4 -15 -9 -15 -5 0 -6 -5 -2 -11 4 -7 8 -57 10 -113
2 -55 5 -148 8 -206 9 -169 18 -409 19 -488 1 -39 5 -72 10 -72 5 0 4 -6 -2
-14 -7 -8 -8 -17 -3 -20 10 -6 10 -36 -1 -52 -3 -6 -4 -14 0 -18 3 -3 8 -45
10 -93 4 -102 11 -265 12 -274 1 -5 29 -4 96 6 22 3 63 8 90 10 28 3 68 7 90
10 47 7 101 13 170 20 28 2 66 7 85 11 19 3 51 7 70 9 19 2 60 7 90 10 30 4
69 8 85 10 67 6 129 16 134 20 2 3 10 0 18 -6 7 -6 13 -7 13 -2 0 5 17 10 37
11 51 4 56 12 38 55 -8 20 -13 37 -11 37 3 0 -2 16 -10 35 -8 19 -12 35 -9 35
3 0 0 10 -7 23 -7 12 -11 28 -9 35 1 8 -3 20 -9 27 -7 8 -9 19 -5 25 3 5 1 10
-4 10 -6 0 -10 3 -9 8 1 4 -5 27 -12 52 -8 25 -14 48 -16 53 -1 4 -3 10 -4 15
-1 4 -2 11 -1 16 1 4 -4 16 -10 25 -13 17 32 -30 179 -187 48 -52 90 -98 93
-104 7 -11 36 1 61 24 29 28 93 73 101 70 4 -1 7 2 7 7 0 5 15 19 33 30 17 11
45 31 60 45 16 14 34 27 40 29 10 3 -57 77 -71 77 -6 0 -59 46 -139 120 -12
11 -25 20 -28 20 -2 0 -18 14 -33 30 -16 17 -34 30 -41 30 -6 0 -11 4 -11 9 0
5 -18 22 -40 38 -22 15 -41 33 -44 39 -2 5 15 31 38 56 22 26 48 55 57 65 8
10 53 61 99 113 47 52 94 106 105 119 11 13 26 29 33 37 6 7 12 15 12 17 0 5
-176 113 -222 136 -16 7 -28 17 -28 22 0 5 -9 9 -20 9 -11 0 -20 4 -20 9 0 11
-59 36 -66 28 -10 -9 -54 -91 -65 -119 -6 -16 -15 -28 -21 -28 -5 0 -7 -4 -4
-9 3 -5 -2 -19 -12 -32 -10 -13 -29 -48 -42 -76 -14 -29 -28 -53 -33 -53 -4 0
-5 -4 -2 -10 3 -5 0 -10 -7 -10 -11 0 -16 48 -8 70 1 3 1 10 0 15 -3 11 -7
193 -12 502 -2 117 -7 213 -12 213 -5 0 -4 6 1 13 10 13 9 75 -2 85 -8 8 -75
10 -75 2z"/>
</g>
</svg>
